<svg xmlns="http://www.w3.org/2000/svg" viewBox="0 0 128 128">
  <!-- QQ（簡略版）。ペンギンの輪郭は Simple Icons（CC0）の Tencent QQ を使用。公式アイコンに差し替え可 -->
  <defs><clipPath id="body"><path d="M21.395 15.035a40 40 0 0 0-.803-2.264l-1.079-2.695c.001-.032.014-.562.014-.836C19.526 4.632 17.351 0 12 0S4.474 4.632 4.474 9.241c0 .274.013.804.014.836l-1.08 2.695a39 39 0 0 0-.802 2.264c-1.021 3.283-.69 4.643-.438 4.673.54.065 2.103-2.472 2.103-2.472 0 1.469.756 3.387 2.394 4.771-.612.188-1.363.479-1.845.835-.434.32-.379.646-.301.778.343.578 5.883.369 7.482.189 1.6.18 7.14.389 7.483-.189.078-.132.132-.458-.301-.778-.483-.356-1.233-.646-1.846-.836 1.637-1.384 2.393-3.302 2.393-4.771 0 0 1.563 2.537 2.103 2.472.251-.03.581-1.39-.438-4.673"/></clipPath></defs>
  <rect width="128" height="128" rx="28" fill="#12B7F5"/>
  <g transform="translate(22.4 19.6) scale(3.5)">
    <path d="M21.395 15.035a40 40 0 0 0-.803-2.264l-1.079-2.695c.001-.032.014-.562.014-.836C19.526 4.632 17.351 0 12 0S4.474 4.632 4.474 9.241c0 .274.013.804.014.836l-1.08 2.695a39 39 0 0 0-.802 2.264c-1.021 3.283-.69 4.643-.438 4.673.54.065 2.103-2.472 2.103-2.472 0 1.469.756 3.387 2.394 4.771-.612.188-1.363.479-1.845.835-.434.32-.379.646-.301.778.343.578 5.883.369 7.482.189 1.6.18 7.14.389 7.483-.189.078-.132.132-.458-.301-.778-.483-.356-1.233-.646-1.846-.836 1.637-1.384 2.393-3.302 2.393-4.771 0 0 1.563 2.537 2.103 2.472.251-.03.581-1.39-.438-4.673" fill="#141414"/>
    <g clip-path="url(#body)">
      <ellipse cx="12" cy="15.6" rx="5.7" ry="6.4" fill="#FFFFFF"/>
      <path d="M2 10.4 Q12 13.6 22 10.4 L22 12.7 Q12 15.9 2 12.7 Z" fill="#E5322D"/>
      <rect x="0" y="21.1" width="24" height="3" fill="#FFB400"/>
    </g>
    <path d="M14.3 13.4 L17.4 17.6 L14.6 17.2 Z" fill="#E5322D"/>
    <ellipse cx="10.1" cy="6.4" rx="1.35" ry="1.8" fill="#FFFFFF"/>
    <ellipse cx="13.9" cy="6.4" rx="1.35" ry="1.8" fill="#FFFFFF"/>
    <circle cx="10.5" cy="6.8" r="0.72" fill="#141414"/>
    <circle cx="13.5" cy="6.8" r="0.72" fill="#141414"/>
    <ellipse cx="12" cy="9.3" rx="2.7" ry="1.05" fill="#FFB400"/>
  </g>
</svg>
